<?xml version="1.0" standalone="no"?><!DOCTYPE svg PUBLIC "-//W3C//DTD SVG 1.1//EN" "http://www.w3.org/Graphics/SVG/1.1/DTD/svg11.dtd"><svg t="1664371746657" class="icon" viewBox="0 0 1024 1024" version="1.1" xmlns="http://www.w3.org/2000/svg" p-id="3710" xmlns:xlink="http://www.w3.org/1999/xlink" width="48" height="48"><path d="M326.9 297.6L228.3 75.8c-4.5-10-16.2-14.5-26.2-10.1-10 4.5-14.5 16.2-10.1 26.2l97.1 218.4 21.3 92.5 119.9 70.5 20.1-34.2-105.2-61.9-18.3-79.6z" fill="#A1887F" p-id="3711"></path><path d="M410.8 508.9l6.2-39.2-119.4-18.8-213-213c-7.8-7.8-20.3-7.8-28.1 0-7.8 7.8-7.8 20.3 0 28.1l222.2 222 132.1 20.9zM423.9 552.8L404 518.4l-121.1 70.1H96.2c-11 0-19.9 8.9-19.9 19.9 0 11 8.9 19.9 19.9 19.9h197.3l92.5-53.6L296.7 685l-74.8 249.5c-3.2 10.5 2.8 21.6 13.3 24.7 10.5 3.2 21.6-2.8 24.7-13.3l72.6-242 110-135.9-18.6-15.2zM713.5 402.8l21.3-92.5 97.1-218.4c4.5-10-0.1-21.8-10.1-26.2-10-4.5-21.8 0.1-26.2 10.1L697 297.7l-18.4 79.6-105.2 61.9 20.1 34.2 120-70.6z" fill="#A1887F" p-id="3712"></path><path d="M967.5 237.8c-7.8-7.8-20.3-7.8-28.1 0l-213 213L607 469.7l6.2 39.2L745.3 488l222.2-222.2c7.7-7.7 7.7-20.3 0-28zM927.8 588.5H741.2L620 518.4l-19.9 34.4-18.7 15.2 110 135.9 72.6 242c3.2 10.5 14.2 16.5 24.7 13.3 10.5-3.2 16.5-14.2 13.3-24.7L727.3 685 638 574.7l92.5 53.6h197.3c11 0 19.9-8.9 19.9-19.9-0.1-11-9-19.9-19.9-19.9z" fill="#A1887F" p-id="3713"></path><path d="M661.2 789.4c0.2-3 0.3-5.9 0.3-8.9 0-12.4-1.5-24.9-4.2-37.2-42.9 2.6-92.2 4.1-144.7 4.1-52.4 0-101.7-1.5-144.7-4.1-2.7 12.3-4.2 24.8-4.2 37.2 0 3 0.1 6 0.3 8.9 43.9 2.7 94.6 4.3 148.6 4.3 54.1 0 104.8-1.6 148.6-4.3zM374.1 836.3c21.8 56.4 75.6 96.4 138.5 96.4s116.7-39.9 138.5-96.4c-41.5 2.4-88.6 3.7-138.5 3.7-50 0-97.1-1.3-138.5-3.7zM640.8 697.9c-25.9-50.7-73.6-89.5-128.2-89.5-54.6 0-102.3 38.8-128.2 89.5 38.9 2 82.4 3.2 128.2 3.2 45.9 0 89.3-1.2 128.2-3.2z" fill="#4E342E" p-id="3714"></path><path d="M512.6 793.7c-54.1 0-104.8-1.6-148.6-4.3 0.9 16.5 4.4 32.3 10.1 46.9 41.5 2.4 88.6 3.7 138.5 3.7 50 0 97-1.3 138.5-3.7 5.7-14.7 9.2-30.4 10.1-46.9-43.8 2.7-94.5 4.3-148.6 4.3zM657.3 743.3c-3.5-15.7-9.1-31-16.4-45.4-38.9 2-82.4 3.2-128.2 3.2-45.9 0-89.3-1.1-128.2-3.2-7.4 14.4-12.9 29.7-16.4 45.4 42.9 2.6 92.2 4.1 144.7 4.1 52.2 0 101.5-1.5 144.5-4.1z" fill="#634A45" p-id="3715"></path><path d="M512.6 538.9m-122.4 0a122.4 122.4 0 1 0 244.8 0 122.4 122.4 0 1 0-244.8 0Z" fill="#795548" p-id="3716"></path><path d="M576.8 462.8H448.3c-15.6 0-28.4-12.8-28.4-28.4v-44.9c0-50.7 41.4-92.1 92.1-92.1h1.1c50.7 0 92.1 41.4 92.1 92.1v44.9c0 15.6-12.8 28.4-28.4 28.4z" fill="#8D6E63" p-id="3717"></path><path d="M467 330.4c-17-9-36.5-36.5-46.3-119.1-1.5 21.6-9.5 151.9 26.5 165.5 15.7 5.9 26.5 0 26.5 0 9.3-5.1 15.2-16.9 13.2-26.5-2.5-11.6-15.9-17.7-19.9-19.9zM604.5 211.3c-9.8 82.6-29.3 110.1-46.3 119.1-4.1 2.2-17.5 8.3-19.9 19.9-2 9.6 4 21.4 13.2 26.5 0 0 10.8 5.9 26.5 0 36-13.6 28-143.9 26.5-165.5z" fill="#4E342E" p-id="3718"></path></svg>