<svg t="1664519593896" class="icon" viewBox="0 0 1024 1024" version="1.1" xmlns="http://www.w3.org/2000/svg" p-id="3161" width="48" height="48"><path d="M982.4 584c11.2 8 26.4 5.6 34.4-6.4 7.2-11.2 3.2-25.6-7.2-33.6l-142.4-105.6c-7.2-5.6-17.6-6.4-25.6-1.6l-123.2 65.6c-3.2 1.6-8 0.8-10.4-2.4-40-54.4-101.6-92-172-98.4V152.8c0-12-8-22.4-19.2-24.8-15.2-2.4-28.8 8.8-28.8 24v249.6c-70.4 7.2-132.8 44.8-171.2 99.2-2.4 3.2-6.4 4-10.4 2.4l-123.2-65.6c-8-4-18.4-4-25.6 1.6L14.4 544.8c-9.6 7.2-13.6 19.2-8 30.4 6.4 14.4 24 17.6 36 8.8l132-97.6 110.4 58.4c3.2 1.6 4.8 6.4 4 9.6-6.4 16.8-11.2 35.2-13.6 53.6-0.8 4-4 7.2-8 7.2H112c-9.6 0-17.6 5.6-21.6 13.6L12 793.6c-5.6 11.2-2.4 24.8 8 31.2 4 2.4 8.8 4 12.8 4 8.8 0 17.6-4.8 21.6-13.6l72-150.4h139.2c4 0 7.2 3.2 8 7.2 2.4 16 5.6 31.2 10.4 45.6 1.6 4 0 8-4 9.6l-139.2 68c-8 4-13.6 12-13.6 21.6V992c0 12 8 22.4 19.2 24.8 15.2 3.2 28.8-8.8 28.8-23.2v-160.8l125.6-61.6c4-1.6 8-0.8 10.4 3.2 43.2 64.8 116.8 108 200 108s156.8-42.4 200-108c2.4-3.2 6.4-4.8 10.4-3.2l125.6 61.6v160c0 12 8 22.4 19.2 24.8 15.2 3.2 28.8-8.8 28.8-23.2v-176c0-8.8-5.6-17.6-13.6-21.6l-139.2-68c-4-1.6-5.6-5.6-4-9.6 4.8-14.4 8.8-29.6 10.4-45.6 0.8-4 4-7.2 8-7.2H896l72 150.4c4 8.8 12.8 13.6 21.6 13.6 4.8 0 8.8-1.6 12.8-4 10.4-6.4 13.6-20 8-31.2L932 632c-4-8-12.8-13.6-21.6-13.6H757.6c-4 0-7.2-3.2-8-7.2-2.4-18.4-7.2-36.8-13.6-53.6-1.6-4 0-8 4-9.6l110.4-58.4L982.4 584z" fill="#444B54" p-id="3162"></path><path d="M512 32m-24 0a24 24 0 1 0 48 0 24 24 0 1 0-48 0Z" fill="#444B54" p-id="3163"></path><path d="M408 640m-64 0a64 64 0 1 0 128 0 64 64 0 1 0-128 0Z" fill="#FFFFFF" p-id="3164"></path><path d="M408 640m-24 0a24 24 0 1 0 48 0 24 24 0 1 0-48 0Z" fill="#444B54" p-id="3165"></path><path d="M616 640m-64 0a64 64 0 1 0 128 0 64 64 0 1 0-128 0Z" fill="#FFFFFF" p-id="3166"></path><path d="M616 640m-24 0a24 24 0 1 0 48 0 24 24 0 1 0-48 0Z" fill="#444B54" p-id="3167"></path></svg>